<svg id="SvgjsSvg1006" width="815" height="730" xmlns="http://www.w3.org/2000/svg" version="1.1" xmlns:xlink="http://www.w3.org/1999/xlink" xmlns:svgjs="http://svgjs.com/svgjs"><defs id="SvgjsDefs1007"><marker id="SvgjsMarker1102" markerWidth="16" markerHeight="12" refX="16" refY="6" viewBox="0 0 16 12" orient="auto" markerUnits="userSpaceOnUse" stroke-dasharray="0,0"><path id="SvgjsPath1103" d="M0,2 L14,6 L0,11 L0,2" fill="#323232" stroke="#323232" stroke-width="2"></path></marker><marker id="SvgjsMarker1106" markerWidth="16" markerHeight="12" refX="16" refY="6" viewBox="0 0 16 12" orient="auto" markerUnits="userSpaceOnUse" stroke-dasharray="0,0"><path id="SvgjsPath1107" d="M0,2 L14,6 L0,11 L0,2" fill="#323232" stroke="#323232" stroke-width="2"></path></marker><marker id="SvgjsMarker1110" markerWidth="16" markerHeight="12" refX="16" refY="6" viewBox="0 0 16 12" orient="auto" markerUnits="userSpaceOnUse" stroke-dasharray="0,0"><path id="SvgjsPath1111" d="M0,2 L14,6 L0,11 L0,2" fill="#323232" stroke="#323232" stroke-width="2"></path></marker><marker id="SvgjsMarker1114" markerWidth="16" markerHeight="12" refX="16" refY="6" viewBox="0 0 16 12" orient="auto" markerUnits="userSpaceOnUse" stroke-dasharray="0,0"><path id="SvgjsPath1115" d="M0,2 L14,6 L0,11 L0,2" fill="#323232" stroke="#323232" stroke-width="2"></path></marker><marker id="SvgjsMarker1118" markerWidth="16" markerHeight="12" refX="16" refY="6" viewBox="0 0 16 12" orient="auto" markerUnits="userSpaceOnUse" stroke-dasharray="0,0"><path id="SvgjsPath1119" d="M0,2 L14,6 L0,11 L0,2" fill="#323232" stroke="#323232" stroke-width="2"></path></marker><marker id="SvgjsMarker1122" markerWidth="16" markerHeight="12" refX="16" refY="6" viewBox="0 0 16 12" orient="auto" markerUnits="userSpaceOnUse" stroke-dasharray="0,0"><path id="SvgjsPath1123" d="M0,2 L14,6 L0,11 L0,2" fill="#323232" stroke="#323232" stroke-width="2"></path></marker><marker id="SvgjsMarker1126" markerWidth="16" markerHeight="12" refX="16" refY="6" viewBox="0 0 16 12" orient="auto" markerUnits="userSpaceOnUse" stroke-dasharray="0,0"><path id="SvgjsPath1127" d="M0,2 L14,6 L0,11 L0,2" fill="#323232" stroke="#323232" stroke-width="2"></path></marker><marker id="SvgjsMarker1130" markerWidth="16" markerHeight="12" refX="16" refY="6" viewBox="0 0 16 12" orient="auto" markerUnits="userSpaceOnUse" stroke-dasharray="0,0"><path id="SvgjsPath1131" d="M0,2 L14,6 L0,11 L0,2" fill="#323232" stroke="#323232" stroke-width="2"></path></marker><marker id="SvgjsMarker1139" markerWidth="16" markerHeight="12" refX="16" refY="6" viewBox="0 0 16 12" orient="auto" markerUnits="userSpaceOnUse" stroke-dasharray="0,0"><path id="SvgjsPath1140" d="M0,2 L14,6 L0,11 L0,2" fill="#323232" stroke="#323232" stroke-width="2"></path></marker><marker id="SvgjsMarker1143" markerWidth="16" markerHeight="12" refX="16" refY="6" viewBox="0 0 16 12" orient="auto" markerUnits="userSpaceOnUse" stroke-dasharray="0,0"><path id="SvgjsPath1144" d="M0,2 L14,6 L0,11 L0,2" fill="#323232" stroke="#323232" stroke-width="2"></path></marker><marker id="SvgjsMarker1147" markerWidth="16" markerHeight="12" refX="16" refY="6" viewBox="0 0 16 12" orient="auto" markerUnits="userSpaceOnUse" stroke-dasharray="0,0"><path id="SvgjsPath1148" d="M0,2 L14,6 L0,11 L0,2" fill="#323232" stroke="#323232" stroke-width="2"></path></marker><marker id="SvgjsMarker1151" markerWidth="16" markerHeight="12" refX="16" refY="6" viewBox="0 0 16 12" orient="auto" markerUnits="userSpaceOnUse" stroke-dasharray="0,0"><path id="SvgjsPath1152" d="M0,2 L14,6 L0,11 L0,2" fill="#323232" stroke="#323232" stroke-width="2"></path></marker><marker id="SvgjsMarker1161" markerWidth="16" markerHeight="12" refX="16" refY="6" viewBox="0 0 16 12" orient="auto" markerUnits="userSpaceOnUse" stroke-dasharray="0,0"><path id="SvgjsPath1162" d="M0,2 L14,6 L0,11 L0,2" fill="#323232" stroke="#323232" stroke-width="2"></path></marker></defs><g id="SvgjsG1008" transform="translate(466.5,235)"><path id="SvgjsPath1009" d="M 0 4Q 0 0 4 0L 143 0Q 147 0 147 4L 147 40Q 147 44 143 44L 4 44Q 0 44 0 40Z" stroke="rgba(50,50,50,1)" stroke-width="2" fill-opacity="1" fill="#ffffff"></path><g id="SvgjsG1010"><text id="SvgjsText1011" font-family="微软雅黑" text-anchor="middle" font-size="13px" width="127px" fill="#323232" font-weight="400" align="middle" anchor="middle" family="微软雅黑" size="13px" weight="400" font-style="" opacity="1" y="12.05" transform="rotate(0)"><tspan id="SvgjsTspan1012" dy="16" x="73.5"><tspan id="SvgjsTspan1013" style="text-decoration:;">InitServerSocket</tspan></tspan></text></g></g><g id="SvgjsG1014" transform="translate(221,151)"><path id="SvgjsPath1015" d="M 0 4Q 0 0 4 0L 143 0Q 147 0 147 4L 147 40Q 147 44 143 44L 4 44Q 0 44 0 40Z" stroke="rgba(50,50,50,1)" stroke-width="2" fill-opacity="1" fill="#ffffff"></path><g id="SvgjsG1016"><text id="SvgjsText1017" font-family="微软雅黑" text-anchor="middle" font-size="13px" width="127px" fill="#323232" font-weight="400" align="middle" anchor="middle" family="微软雅黑" size="13px" weight="400" font-style="" opacity="1" y="12.05" transform="rotate(0)"><tspan id="SvgjsTspan1018" dy="16" x="73.5"><tspan id="SvgjsTspan1019" style="text-decoration:;">process</tspan></tspan></text></g></g><g id="SvgjsG1020" transform="translate(210.5,356)"><path id="SvgjsPath1021" d="M 0 4Q 0 0 4 0L 143 0Q 147 0 147 4L 147 54Q 147 58 143 58L 4 58Q 0 58 0 54Z" stroke="rgba(50,50,50,1)" stroke-width="2" fill-opacity="1" fill="#ffffff"></path><g id="SvgjsG1022"><text id="SvgjsText1023" font-family="微软雅黑" text-anchor="middle" font-size="13px" width="127px" fill="#323232" font-weight="400" align="middle" anchor="middle" family="微软雅黑" size="13px" weight="400" font-style="" opacity="1" y="19.05" transform="rotate(0)"><tspan id="SvgjsTspan1024" dy="16" x="73.5"><tspan id="SvgjsTspan1025" style="text-decoration:;">epoll_create</tspan></tspan></text></g></g><g id="SvgjsG1026" transform="translate(466.5,323)"><path id="SvgjsPath1027" d="M 0 4Q 0 0 4 0L 143 0Q 147 0 147 4L 147 46Q 147 50 143 50L 4 50Q 0 50 0 46Z" stroke="rgba(50,50,50,1)" stroke-width="2" fill-opacity="1" fill="#ffffff"></path><g id="SvgjsG1028"><text id="SvgjsText1029" font-family="微软雅黑" text-anchor="middle" font-size="13px" width="127px" fill="#323232" font-weight="400" align="middle" anchor="middle" family="微软雅黑" size="13px" weight="400" font-style="" opacity="1" y="15.05" transform="rotate(0)"><tspan id="SvgjsTspan1030" dy="16" x="73.5"><tspan id="SvgjsTspan1031" style="text-decoration:;">epoll对象</tspan></tspan></text></g></g><g id="SvgjsG1032" transform="translate(466.5,482)"><path id="SvgjsPath1033" d="M 0 4Q 0 0 4 0L 136 0Q 140 0 140 4L 140 46Q 140 50 136 50L 4 50Q 0 50 0 46Z" stroke="rgba(50,50,50,1)" stroke-width="2" fill-opacity="1" fill="#ffffff"></path><g id="SvgjsG1034"><text id="SvgjsText1035" font-family="微软雅黑" text-anchor="middle" font-size="13px" width="120px" fill="#323232" font-weight="400" align="middle" anchor="middle" family="微软雅黑" size="13px" weight="400" font-style="" opacity="1" y="15.05" transform="rotate(0)"><tspan id="SvgjsTspan1036" dy="16" x="70"><tspan id="SvgjsTspan1037" style="text-decoration:;">eventpoll</tspan></tspan></text></g></g><g id="SvgjsG1038" transform="translate(674,516)"><path id="SvgjsPath1039" d="M 0 4Q 0 0 4 0L 112 0Q 116 0 116 4L 116 40Q 116 44 112 44L 4 44Q 0 44 0 40Z" stroke="rgba(50,50,50,1)" stroke-width="2" fill-opacity="1" fill="#ffffff"></path><g id="SvgjsG1040"><text id="SvgjsText1041" font-family="微软雅黑" text-anchor="middle" font-size="13px" width="96px" fill="#323232" font-weight="400" align="middle" anchor="middle" family="微软雅黑" size="13px" weight="400" font-style="" opacity="1" y="12.05" transform="rotate(0)"><tspan id="SvgjsTspan1042" dy="16" x="58"><tspan id="SvgjsTspan1043" style="text-decoration:;">红黑树的根节点</tspan></tspan></text></g></g><g id="SvgjsG1044" transform="translate(674,443)"><path id="SvgjsPath1045" d="M 0 4Q 0 0 4 0L 112 0Q 116 0 116 4L 116 40Q 116 44 112 44L 4 44Q 0 44 0 40Z" stroke="rgba(50,50,50,1)" stroke-width="2" fill-opacity="1" fill="#ffffff"></path><g id="SvgjsG1046"><text id="SvgjsText1047" font-family="微软雅黑" text-anchor="middle" font-size="13px" width="96px" fill="#323232" font-weight="400" align="middle" anchor="middle" family="微软雅黑" size="13px" weight="400" font-style="" opacity="1" y="12.05" transform="rotate(0)"><tspan id="SvgjsTspan1048" dy="16" x="58"><tspan id="SvgjsTspan1049" style="text-decoration:;">双向链表rdllist</tspan></tspan></text></g></g><g id="SvgjsG1050" transform="translate(466.5,403)"><path id="SvgjsPath1051" d="M 0 4Q 0 0 4 0L 136 0Q 140 0 140 4L 140 46Q 140 50 136 50L 4 50Q 0 50 0 46Z" stroke="rgba(50,50,50,1)" stroke-width="2" fill-opacity="1" fill="#ffffff"></path><g id="SvgjsG1052"><text id="SvgjsText1053" font-family="微软雅黑" text-anchor="middle" font-size="13px" width="120px" fill="#323232" font-weight="400" align="middle" anchor="middle" family="微软雅黑" size="13px" weight="400" font-style="" opacity="1" y="15.05" transform="rotate(0)"><tspan id="SvgjsTspan1054" dy="16" x="70"><tspan id="SvgjsTspan1055" style="text-decoration:;">epoll_ctl</tspan></tspan></text></g></g><g id="SvgjsG1056" transform="translate(217,495)"><path id="SvgjsPath1057" d="M 0 4Q 0 0 4 0L 112 0Q 116 0 116 4L 116 46Q 116 50 112 50L 4 50Q 0 50 0 46Z" stroke="rgba(50,50,50,1)" stroke-width="2" fill-opacity="1" fill="#ffffff"></path><g id="SvgjsG1058"><text id="SvgjsText1059" font-family="微软雅黑" text-anchor="middle" font-size="13px" width="96px" fill="#323232" font-weight="400" align="middle" anchor="middle" family="微软雅黑" size="13px" weight="400" font-style="" opacity="1" y="15.05" transform="rotate(0)"><tspan id="SvgjsTspan1060" dy="16" x="58"><tspan id="SvgjsTspan1061" style="text-decoration:;">epoll_wait</tspan></tspan></text></g></g><g id="SvgjsG1062" transform="translate(25,360)"><path id="SvgjsPath1063" d="M 0 4Q 0 0 4 0L 112 0Q 116 0 116 4L 116 46Q 116 50 112 50L 4 50Q 0 50 0 46Z" stroke="rgba(50,50,50,1)" stroke-width="2" fill-opacity="1" fill="#ffffff"></path><g id="SvgjsG1064"><text id="SvgjsText1065" font-family="微软雅黑" text-anchor="middle" font-size="13px" width="96px" fill="#323232" font-weight="400" align="middle" anchor="middle" family="微软雅黑" size="13px" weight="400" font-style="" opacity="1" y="15.05" transform="rotate(0)"><tspan id="SvgjsTspan1066" dy="16" x="58"><tspan id="SvgjsTspan1067" style="text-decoration:;">callback</tspan></tspan></text></g></g><g id="SvgjsG1068" transform="translate(159,243)"><path id="SvgjsPath1069" d="M 0 4Q 0 0 4 0L 104 0Q 108 0 108 4L 108 32Q 108 36 104 36L 4 36Q 0 36 0 32Z" stroke="rgba(50,50,50,1)" stroke-width="2" fill-opacity="1" fill="#ffffff"></path><g id="SvgjsG1070"><text id="SvgjsText1071" font-family="微软雅黑" text-anchor="middle" font-size="13px" width="88px" fill="#323232" font-weight="400" align="middle" anchor="middle" family="微软雅黑" size="13px" weight="400" font-style="" opacity="1" y="8.05" transform="rotate(0)"><tspan id="SvgjsTspan1072" dy="16" x="54"><tspan id="SvgjsTspan1073" style="text-decoration:;">fd1</tspan></tspan></text></g></g><g id="SvgjsG1074" transform="translate(183.5,25)"><path id="SvgjsPath1075" d="M 0 4Q 0 0 4 0L 99 0Q 103 0 103 4L 103 46Q 103 50 99 50L 4 50Q 0 50 0 46Z" stroke="rgba(50,50,50,1)" stroke-width="2" fill-opacity="1" fill="#ffffff"></path><g id="SvgjsG1076"><text id="SvgjsText1077" font-family="微软雅黑" text-anchor="middle" font-size="13px" width="83px" fill="#323232" font-weight="400" align="middle" anchor="middle" family="微软雅黑" size="13px" weight="400" font-style="" opacity="1" y="-0.95" transform="rotate(0)"><tspan id="SvgjsTspan1078" dy="16" x="51.5"><tspan id="SvgjsTspan1079" style="text-decoration:;"> </tspan></tspan><tspan id="SvgjsTspan1080" dy="16" x="51.5"><tspan id="SvgjsTspan1081" style="text-decoration:;">client1</tspan></tspan><tspan id="SvgjsTspan1082" dy="16" x="51.5"><tspan id="SvgjsTspan1083" style="text-decoration:;"> </tspan></tspan></text></g></g><g id="SvgjsG1084" transform="translate(294.5,25)"><path id="SvgjsPath1085" d="M 0 4Q 0 0 4 0L 99 0Q 103 0 103 4L 103 46Q 103 50 99 50L 4 50Q 0 50 0 46Z" stroke="rgba(50,50,50,1)" stroke-width="2" fill-opacity="1" fill="#ffffff"></path><g id="SvgjsG1086"><text id="SvgjsText1087" font-family="微软雅黑" text-anchor="middle" font-size="13px" width="83px" fill="#323232" font-weight="400" align="middle" anchor="middle" family="微软雅黑" size="13px" weight="400" font-style="" opacity="1" y="-0.95" transform="rotate(0)"><tspan id="SvgjsTspan1088" dy="16" x="51.5"><tspan id="SvgjsTspan1089" style="text-decoration:;"> </tspan></tspan><tspan id="SvgjsTspan1090" dy="16" x="51.5"><tspan id="SvgjsTspan1091" style="text-decoration:;">client2</tspan></tspan><tspan id="SvgjsTspan1092" dy="16" x="51.5"><tspan id="SvgjsTspan1093" style="text-decoration:;"> </tspan></tspan></text></g></g><g id="SvgjsG1094" transform="translate(302,243)"><path id="SvgjsPath1095" d="M 0 4Q 0 0 4 0L 104 0Q 108 0 108 4L 108 32Q 108 36 104 36L 4 36Q 0 36 0 32Z" stroke="rgba(50,50,50,1)" stroke-width="2" fill-opacity="1" fill="#ffffff"></path><g id="SvgjsG1096"><text id="SvgjsText1097" font-family="微软雅黑" text-anchor="middle" font-size="13px" width="88px" fill="#323232" font-weight="400" align="middle" anchor="middle" family="微软雅黑" size="13px" weight="400" font-style="" opacity="1" y="8.05" transform="rotate(0)"><tspan id="SvgjsTspan1098" dy="16" x="54"><tspan id="SvgjsTspan1099" style="text-decoration:;">fd2</tspan></tspan></text></g></g><g id="SvgjsG1100"><path id="SvgjsPath1101" d="M235 75L235 113L294.5 113L294.5 151" stroke="#323232" stroke-width="2" fill="none" marker-end="url(#SvgjsMarker1102)"></path></g><g id="SvgjsG1104"><path id="SvgjsPath1105" d="M346 75L346 113L294.5 113L294.5 151" stroke="#323232" stroke-width="2" fill="none" marker-end="url(#SvgjsMarker1106)"></path></g><g id="SvgjsG1108"><path id="SvgjsPath1109" d="M294.5 195L294.5 219.5L213 219.5L213 243" stroke="#323232" stroke-width="2" fill="none" marker-end="url(#SvgjsMarker1110)"></path></g><g id="SvgjsG1112"><path id="SvgjsPath1113" d="M294.5 195L294.5 219L356 219L356 243" stroke="#323232" stroke-width="2" fill="none" marker-end="url(#SvgjsMarker1114)"></path></g><g id="SvgjsG1116"><path id="SvgjsPath1117" d="M213 279L213 317.5L284 317.5L284 356" stroke="#323232" stroke-width="2" fill="none" marker-end="url(#SvgjsMarker1118)"></path></g><g id="SvgjsG1120"><path id="SvgjsPath1121" d="M356 279L356 317.5L284 317.5L284 356" stroke="#323232" stroke-width="2" fill="none" marker-end="url(#SvgjsMarker1122)"></path></g><g id="SvgjsG1124"><path id="SvgjsPath1125" d="M606.5 507L640.25 507L640.25 465L674 465" stroke="#323232" stroke-width="2" fill="none" marker-end="url(#SvgjsMarker1126)"></path></g><g id="SvgjsG1128"><path id="SvgjsPath1129" d="M606.5 507L640.25 507L640.25 538L674 538" stroke="#323232" stroke-width="2" fill="none" marker-end="url(#SvgjsMarker1130)"></path></g><g id="SvgjsG1132" transform="translate(312,266)"><path id="SvgjsPath1133" d="M 127.5 0Q 118.5 0 118.5 9L 118.5 110Q 118.5 119 105.5 119Q 118.5 119 118.5 128L 118.5 229Q 118.5 238 127.5 238" stroke="rgba(50,50,50,1)" stroke-width="2" fill="none"></path><path id="SvgjsPath1134" d="M 0 0L 127.5 0L 127.5 238L 0 238Z" stroke="none" fill="none"></path><g id="SvgjsG1135"><text id="SvgjsText1136" font-family="微软雅黑" text-anchor="end" font-size="13px" width="101px" fill="#323232" font-weight="400" align="middle" anchor="end" family="微软雅黑" size="13px" weight="400" font-style="" opacity="1" y="109.05" transform="rotate(0)"></text></g></g><g id="SvgjsG1137"><path id="SvgjsPath1138" d="M159 261C 109.07685907317128 261 83.00000000000003 310.0768590731713 83 360" stroke="#323232" stroke-width="2" fill="none" marker-end="url(#SvgjsMarker1139)"></path></g><g id="SvgjsG1141"><path id="SvgjsPath1142" d="M83 410C 83 479.34666538486186 147.65333461513814 520 217 520" stroke="#323232" stroke-width="2" fill="none" marker-end="url(#SvgjsMarker1143)"></path></g><g id="SvgjsG1145"><path id="SvgjsPath1146" d="M83 360C 83.00000000000003 310.0768590731713 109.07685907317128 261 159 261" stroke="#323232" stroke-width="2" fill="none" marker-end="url(#SvgjsMarker1147)"></path></g><g id="SvgjsG1149"><path id="SvgjsPath1150" d="M217 520C 147.65333461513814 520 83 479.34666538486186 83 410" stroke="#323232" stroke-width="2" fill="none" marker-end="url(#SvgjsMarker1151)"></path></g><g id="SvgjsG1153" transform="translate(225,651)"><path id="SvgjsPath1154" d="M 0 4Q 0 0 4 0L 96 0Q 100 0 100 4L 100 50Q 100 54 96 54L 4 54Q 0 54 0 50Z" stroke="rgba(50,50,50,1)" stroke-width="2" fill-opacity="1" fill="#ffffff"></path><g id="SvgjsG1155"><text id="SvgjsText1156" font-family="微软雅黑" text-anchor="middle" font-size="13px" width="80px" fill="#323232" font-weight="400" align="middle" anchor="middle" family="微软雅黑" size="13px" weight="400" font-style="" opacity="1" y="17.05" transform="rotate(0)"><tspan id="SvgjsTspan1157" dy="16" x="50"><tspan id="SvgjsTspan1158" style="text-decoration:;">server</tspan></tspan></text></g></g><g id="SvgjsG1159"><path id="SvgjsPath1160" d="M275 545C 275 587.4 275 608.6 275 651" stroke="#323232" stroke-width="2" fill="none" marker-end="url(#SvgjsMarker1161)"></path></g></svg>